<svg xmlns="http://www.w3.org/2000/svg" width="29.684" height="33.925" viewBox="0 0 29.684 33.925">
  <path id="bell" d="M14.842,33.925A4.24,4.24,0,0,1,10.6,29.684H19.08A4.24,4.24,0,0,1,14.842,33.925ZM.57,24.005C1.85,22.63,4.245,20.56,4.245,13.782A10.464,10.464,0,0,1,12.723,3.5V2.12a2.119,2.119,0,1,1,4.238,0V3.5a10.464,10.464,0,0,1,8.477,10.281c0,6.778,2.4,8.848,3.675,10.223a2.07,2.07,0,0,1,.57,1.438,2.122,2.122,0,0,1-2.127,2.12H2.126A2.122,2.122,0,0,1,0,25.444,2.069,2.069,0,0,1,.57,24.005Z" transform="translate(0.001)" fill="#797979"/>
</svg>
