<svg xmlns="http://www.w3.org/2000/svg" width="10.665" height="10.664" viewBox="0 0 10.665 10.664">
  <path id="Path_17110" data-name="Path 17110" d="M291.933,924.869l1.975-1.978q1.119-1.119,2.239-2.238a1.764,1.764,0,0,1,.265-.234.585.585,0,0,1,.809.8,1.842,1.842,0,0,1-.253.288q-1.9,1.9-3.808,3.806c-.1.1-.223.195-.36.314.1.109.17.188.243.261l3.869,3.87c.056.056.113.111.167.168a.609.609,0,0,1,.058.892.6.6,0,0,1-.891-.05c-.527-.52-1.047-1.045-1.57-1.568q-1.224-1.224-2.446-2.449a2.189,2.189,0,0,1-.2-.284c-.136.127-.215.2-.289.271l-3.913,3.911a2.083,2.083,0,0,1-.262.237.585.585,0,0,1-.8-.829,2.2,2.2,0,0,1,.221-.238l3.911-3.912c.075-.075.146-.154.231-.245-.085-.091-.156-.17-.231-.245L286.98,921.5a1.922,1.922,0,0,1-.236-.264.583.583,0,0,1,.8-.815,1.956,1.956,0,0,1,.287.254q1.947,1.944,3.89,3.891A2.377,2.377,0,0,1,291.933,924.869Z" transform="translate(-286.642 -920.329)" fill="#cbcbcb"/>
</svg>
