<svg id="Group_7213" data-name="Group 7213" xmlns="http://www.w3.org/2000/svg" width="32.559" height="32.586" viewBox="0 0 32.559 32.586">
  <path id="Path_19901" data-name="Path 19901" d="M685.977,2186.181h-7.639c-3.887,0-7.774.012-11.66,0a3.225,3.225,0,0,1-2.947-4.964c.586-1.1,1.229-2.168,1.779-3.283a1.43,1.43,0,0,0,.05-1.087c-1.732-3.726-3.521-7.427-5.254-11.155a1.055,1.055,0,0,0-1.18-.729c-.774.049-1.554.012-2.381.012v-3.213c1.669,0,3.312-.015,4.953.02.183,0,.424.256.529.452a15.591,15.591,0,0,1,.969,2.036c.23.637.612.769,1.242.767q11.138-.032,22.276-.014c.232,0,.464,0,.7,0,1.659.03,2.359,1.182,1.567,2.632-1.651,3.024-3.327,6.035-4.993,9.052-.168.3-.349.6-.5.915a3.506,3.506,0,0,1-3.511,2.067c-3.6-.029-7.194.015-10.79-.029a1.3,1.3,0,0,0-1.395.852c-.237.527-.556,1.016-.825,1.528-.364.693-.226.912.582.944.2.008.406,0,.609,0h17.821Z" transform="translate(-656.745 -2161.756)" fill="#f6bf2e"/>
  <path id="Path_19902" data-name="Path 19902" d="M787.35,2314.388a3.185,3.185,0,0,1,3.217-3.26,3.236,3.236,0,0,1,.054,6.471A3.2,3.2,0,0,1,787.35,2314.388Z" transform="translate(-764.516 -2285.013)" fill="#f6bf2e"/>
  <path id="Path_19903" data-name="Path 19903" d="M700.349,2314.35a3.187,3.187,0,0,1-3.23,3.25,3.236,3.236,0,0,1-.021-6.472A3.174,3.174,0,0,1,700.349,2314.35Z" transform="translate(-687.39 -2285.013)" fill="#f6bf2e"/>
</svg>
