<svg id="Group_12919" data-name="Group 12919" xmlns="http://www.w3.org/2000/svg" width="26.86" height="26.86" viewBox="0 0 26.86 26.86">
  <path id="Path_43274" data-name="Path 43274" d="M13.43,0A13.43,13.43,0,1,1,0,13.43,13.43,13.43,0,0,1,13.43,0Z" fill="#c6d54a"/>
  <g id="download" transform="translate(5.241 8.194)">
    <path id="Path_181" data-name="Path 181" d="M57.382,79.14l-3.7-3.659a1.439,1.439,0,0,0-2.019,0,1.4,1.4,0,0,0,0,2l4.711,4.656a1.439,1.439,0,0,0,2.019,0l8.075-7.982a1.4,1.4,0,0,0,0-2,1.439,1.439,0,0,0-2.019,0Z" transform="translate(-51.244 -71.742)" fill="#fff" fill-rule="evenodd"/>
  </g>
</svg>
