<svg xmlns="http://www.w3.org/2000/svg" width="28.21" height="32.24" viewBox="0 0 28.21 32.24">
  <path id="trash-alt-solid" d="M2.015,29.218A3.023,3.023,0,0,0,5.038,32.24H23.173A3.023,3.023,0,0,0,26.2,29.218V8.06H2.015ZM19.143,13.1a1.008,1.008,0,0,1,2.015,0V27.2a1.008,1.008,0,1,1-2.015,0Zm-6.045,0a1.008,1.008,0,0,1,2.015,0V27.2a1.008,1.008,0,1,1-2.015,0Zm-6.045,0a1.008,1.008,0,0,1,2.015,0V27.2a1.008,1.008,0,1,1-2.015,0ZM27.2,2.015H19.647L19.055.837A1.511,1.511,0,0,0,17.7,0H10.5A1.494,1.494,0,0,0,9.156.837L8.564,2.015H1.008A1.008,1.008,0,0,0,0,3.022V5.037A1.008,1.008,0,0,0,1.008,6.045H27.2A1.008,1.008,0,0,0,28.21,5.037V3.022A1.008,1.008,0,0,0,27.2,2.015Z" transform="translate(0 0)" fill="#d74837"/>
</svg>
