<svg xmlns="http://www.w3.org/2000/svg" xmlns:xlink="http://www.w3.org/1999/xlink" width="147.87" height="44.169" viewBox="0 0 147.87 44.169">
  <defs>
    <clipPath id="clip-path">
      <rect id="Rectangle_7624" data-name="Rectangle 7624" width="147.87" height="44.169" fill="none"/>
    </clipPath>
  </defs>
  <g id="Group_12919" data-name="Group 12919" transform="translate(-154.517 -1.086)">
    <g id="Group_11786" data-name="Group 11786" transform="translate(154.517 1.086)">
      <g id="Group_11785" data-name="Group 11785" transform="translate(0 0)" clip-path="url(#clip-path)">
        <g id="Group_11784" data-name="Group 11784" transform="translate(0 -0.003)">
          <path id="Path_46161" data-name="Path 46161" d="M-377.381,7.675a4.473,4.473,0,0,0-4.467,4.468V44.536A4.473,4.473,0,0,0-377.381,49h136.746a4.473,4.473,0,0,0,4.467-4.468V12.143a4.473,4.473,0,0,0-4.467-4.468ZM-240.635,50.1H-377.381a5.572,5.572,0,0,1-5.564-5.567V12.143a5.572,5.572,0,0,1,5.564-5.567h136.746a5.572,5.572,0,0,1,5.564,5.567V44.536a5.572,5.572,0,0,1-5.564,5.567" transform="translate(382.945 -6.576)" fill="#a7a9ab"/>
        </g>
      </g>
    </g>
    <g id="Group_12918" data-name="Group 12918">
      <path id="Path_46160" data-name="Path 46160" d="M-240.376,49.812H-377.119a5.016,5.016,0,0,1-5.017-5.017V12.4a5.016,5.016,0,0,1,5.017-5.017h136.743a5.016,5.016,0,0,1,5.017,5.017V44.8a5.016,5.016,0,0,1-5.017,5.017" transform="translate(537.202 -5.752)"/>
      <path id="Path_46162" data-name="Path 46162" d="M-309.375,21.39l-.563-1.763c-.138-.436-.255-.921-.361-1.335h-.021c-.1.415-.213.911-.337,1.335l-.552,1.763Zm-2.046.985-.616,2.028h-1.348l2.293-7.151h1.664l2.323,7.151h-1.4l-.648-2.028" transform="translate(515.169 -8.914)" fill="#fff"/>
      <path id="Path_46163" data-name="Path 46163" d="M-301.939,20.174l.839,2.617c.148.457.252.871.347,1.3h.032c.1-.425.213-.828.351-1.3l.828-2.617h1.367l-1.972,5.165h-1.282l-1.922-5.165" transform="translate(511.953 -9.851)" fill="#fff"/>
      <path id="Path_46164" data-name="Path 46164" d="M-291.4,22.757c-.923-.011-1.8.18-1.8.966a.685.685,0,0,0,.743.743,1.069,1.069,0,0,0,1.027-.711.826.826,0,0,0,.034-.286Zm1.271,1.284a6.965,6.965,0,0,0,.085,1.239h-1.178l-.093-.57h-.034a1.89,1.89,0,0,1-1.527.687,1.53,1.53,0,0,1-1.621-1.536c0-1.3,1.155-1.962,3.063-1.951v-.085c0-.34-.136-.9-1.048-.9a2.739,2.739,0,0,0-1.391.383l-.255-.849A3.723,3.723,0,0,1-292.261,20a1.934,1.934,0,0,1,2.131,2.185" transform="translate(509.116 -9.796)" fill="#fff"/>
      <path id="Path_46165" data-name="Path 46165" d="M-285.39,19.157h1.3v5.165h-1.3Zm.646-.743a.692.692,0,0,1-.72-.7.7.7,0,0,1,.733-.711.7.7,0,0,1,.73.711.694.694,0,0,1-.73.7" transform="translate(506.221 -8.834)" fill="#fff"/>
      <path id="Path_46166" data-name="Path 46166" d="M-280.675,24.217h1.306V16.674h-1.306Z" transform="translate(504.686 -8.729)" fill="#fff"/>
      <path id="Path_46167" data-name="Path 46167" d="M-273.409,22.757c-.924-.011-1.805.18-1.805.966a.685.685,0,0,0,.743.743,1.073,1.073,0,0,0,1.03-.711.876.876,0,0,0,.032-.286Zm1.271,1.284a6.9,6.9,0,0,0,.085,1.239h-1.176l-.1-.57h-.032a1.9,1.9,0,0,1-1.529.687,1.532,1.532,0,0,1-1.622-1.536c0-1.3,1.157-1.962,3.066-1.951v-.085c0-.34-.138-.9-1.051-.9a2.723,2.723,0,0,0-1.388.383l-.255-.849A3.712,3.712,0,0,1-274.269,20a1.935,1.935,0,0,1,2.132,2.185" transform="translate(503.351 -9.796)" fill="#fff"/>
      <path id="Path_46168" data-name="Path 46168" d="M-266.077,22.084a1.455,1.455,0,0,0,.032.308,1.192,1.192,0,0,0,1.154.913c.818,0,1.317-.648,1.317-1.7,0-.913-.436-1.657-1.306-1.657a1.211,1.211,0,0,0-1.155.955,1.575,1.575,0,0,0-.043.34Zm-1.306-5.41h1.306v3.087h.022a1.862,1.862,0,0,1,1.653-.826c1.264,0,2.164,1.049,2.153,2.62a2.473,2.473,0,0,1-2.344,2.779,1.775,1.775,0,0,1-1.632-.892h-.022l-.063.775h-1.115c.021-.35.042-.923.042-1.444" transform="translate(500.44 -8.729)" fill="#fff"/>
      <path id="Path_46169" data-name="Path 46169" d="M-257.546,24.217h1.3V16.674h-1.3Z" transform="translate(497.274 -8.729)" fill="#fff"/>
      <path id="Path_46170" data-name="Path 46170" d="M-249.813,22.155a1.111,1.111,0,0,0-1.07-1.263,1.277,1.277,0,0,0-1.2,1.263Zm-2.269.911A1.4,1.4,0,0,0-250.49,24.4a4.164,4.164,0,0,0,1.431-.234l.191.889a4.578,4.578,0,0,1-1.8.33,2.443,2.443,0,0,1-2.665-2.607A2.558,2.558,0,0,1-250.808,20a2.245,2.245,0,0,1,2.227,2.514,3.1,3.1,0,0,1-.043.55" transform="translate(495.924 -9.796)" fill="#fff"/>
      <path id="Path_46171" data-name="Path 46171" d="M-238.045,24.456c.741,0,1.261-.722,1.261-1.771,0-.807-.361-1.741-1.25-1.741-.924,0-1.3.9-1.3,1.762,0,1,.5,1.75,1.272,1.75Zm-.042.945a2.5,2.5,0,0,1-2.588-2.662A2.549,2.549,0,0,1-238,20a2.478,2.478,0,0,1,2.567,2.651,2.558,2.558,0,0,1-2.641,2.747" transform="translate(491.867 -9.796)" fill="#fff"/>
      <path id="Path_46172" data-name="Path 46172" d="M-230.725,21.656c0-.595-.019-1.094-.04-1.54h1.133l.064.775h.032A1.9,1.9,0,0,1-227.88,20c.9,0,1.834.581,1.834,2.217v3.063h-1.305V22.367c0-.743-.277-1.305-.985-1.305a1.1,1.1,0,0,0-1.019.764,1.218,1.218,0,0,0-.063.414v3.042h-1.306" transform="translate(488.691 -9.796)" fill="#fff"/>
      <path id="Path_46173" data-name="Path 46173" d="M-215.924,18.221v1.324h1.239v.976h-1.239v2.27c0,.637.17.956.667.956a1.69,1.69,0,0,0,.51-.054l.021.985a2.8,2.8,0,0,1-.945.138,1.5,1.5,0,0,1-1.123-.422,2.038,2.038,0,0,1-.415-1.455V20.522h-.733v-.976h.733v-.964" transform="translate(484.581 -9.225)" fill="#fff"/>
      <path id="Path_46174" data-name="Path 46174" d="M-211.011,16.674h1.306V19.75h.021a1.725,1.725,0,0,1,.648-.584,1.859,1.859,0,0,1,.9-.231c.881,0,1.8.581,1.8,2.238v3.044h-1.3V21.311c0-.743-.276-1.316-1-1.316a1.089,1.089,0,0,0-1.017.733,1.182,1.182,0,0,0-.053.393v3.1h-1.306" transform="translate(482.36 -8.729)" fill="#fff"/>
      <path id="Path_46175" data-name="Path 46175" d="M-198.359,22.155a1.112,1.112,0,0,0-1.073-1.263,1.275,1.275,0,0,0-1.2,1.263Zm-2.27.911a1.4,1.4,0,0,0,1.59,1.338,4.14,4.14,0,0,0,1.43-.234l.194.889a4.582,4.582,0,0,1-1.8.33,2.443,2.443,0,0,1-2.662-2.607A2.557,2.557,0,0,1-199.358,20a2.245,2.245,0,0,1,2.227,2.514,3.177,3.177,0,0,1-.042.55" transform="translate(479.435 -9.796)" fill="#fff"/>
      <path id="Path_46176" data-name="Path 46176" d="M-343.355,34.14a6.355,6.355,0,0,1,3.031-5.341,6.518,6.518,0,0,0-5.136-2.777c-2.158-.226-4.252,1.3-5.351,1.3-1.123,0-2.819-1.271-4.642-1.234a6.843,6.843,0,0,0-5.755,3.509c-2.484,4.308-.631,10.636,1.753,14.118,1.194,1.7,2.585,3.61,4.409,3.541,1.784-.074,2.45-1.135,4.6-1.135,2.134,0,2.761,1.135,4.621,1.093,1.913-.032,3.119-1.712,4.268-3.435A13.981,13.981,0,0,0-339.6,39.8a6.156,6.156,0,0,1-3.753-5.659" transform="translate(530.873 -11.718)" fill="#fff"/>
      <path id="Path_46177" data-name="Path 46177" d="M-341.529,20.548a6.258,6.258,0,0,0,1.433-4.491,6.392,6.392,0,0,0-4.125,2.134,5.958,5.958,0,0,0-1.47,4.324,5.267,5.267,0,0,0,4.162-1.967" transform="translate(525.533 -8.531)" fill="#fff"/>
      <path id="Path_46178" data-name="Path 46178" d="M-306.49,43.915l-1.232-3.8c-.13-.387-.374-1.3-.735-2.742h-.042c-.143.618-.377,1.534-.693,2.742l-1.21,3.8Zm4.257,6.076h-2.487l-1.362-4.279h-4.73l-1.3,4.279h-2.42l4.693-14.567h2.893" transform="translate(515.536 -14.738)" fill="#fff"/>
      <path id="Path_46179" data-name="Path 46179" d="M-285.832,46.509a4.327,4.327,0,0,0-.692-2.529,2.393,2.393,0,0,0-2.031-1.038,2.423,2.423,0,0,0-1.566.574,2.688,2.688,0,0,0-.921,1.505,3.045,3.045,0,0,0-.106.709v1.752a2.811,2.811,0,0,0,.7,1.935,2.328,2.328,0,0,0,1.827.788,2.374,2.374,0,0,0,2.051-1.017,4.439,4.439,0,0,0,.738-2.679m2.378-.088a5.968,5.968,0,0,1-1.449,4.237,4.233,4.233,0,0,1-3.22,1.383,3.223,3.223,0,0,1-2.984-1.492h-.042v5.534h-2.336V44.757q0-1.684-.085-3.459h2.052l.13,1.668h.046a3.885,3.885,0,0,1,3.544-1.882,3.9,3.9,0,0,1,3.1,1.47,5.794,5.794,0,0,1,1.245,3.867" transform="translate(508.819 -16.552)" fill="#fff"/>
      <path id="Path_46180" data-name="Path 46180" d="M-268.053,46.509a4.322,4.322,0,0,0-.693-2.529,2.391,2.391,0,0,0-2.03-1.038,2.43,2.43,0,0,0-1.566.574,2.654,2.654,0,0,0-.916,1.505,2.927,2.927,0,0,0-.109.709v1.752a2.806,2.806,0,0,0,.7,1.935,2.327,2.327,0,0,0,1.829.788,2.38,2.38,0,0,0,2.051-1.017,4.476,4.476,0,0,0,.736-2.679m2.376-.088a5.967,5.967,0,0,1-1.447,4.237,4.232,4.232,0,0,1-3.22,1.383,3.226,3.226,0,0,1-2.983-1.492h-.04v5.534H-275.7V44.757q0-1.684-.085-3.459h2.051l.13,1.668h.045a3.878,3.878,0,0,1,3.541-1.882,3.905,3.905,0,0,1,3.1,1.47,5.792,5.792,0,0,1,1.24,3.867" transform="translate(503.12 -16.552)" fill="#fff"/>
      <path id="Path_46181" data-name="Path 46181" d="M-245.291,45.8a3.884,3.884,0,0,1-1.3,3.026,5.738,5.738,0,0,1-3.966,1.274,6.967,6.967,0,0,1-3.779-.908l.542-1.943a6.41,6.41,0,0,0,3.376.927,3.2,3.2,0,0,0,2.055-.592,1.951,1.951,0,0,0,.733-1.593,2.032,2.032,0,0,0-.6-1.494,5.677,5.677,0,0,0-2.012-1.126q-3.826-1.429-3.825-4.178a3.7,3.7,0,0,1,1.341-2.944,5.294,5.294,0,0,1,3.565-1.149,7.09,7.09,0,0,1,3.307.692l-.584,1.9a5.743,5.743,0,0,0-2.787-.671,2.812,2.812,0,0,0-1.922.6,1.74,1.74,0,0,0-.584,1.32,1.773,1.773,0,0,0,.669,1.425,7.61,7.61,0,0,0,2.118,1.125,7.19,7.19,0,0,1,2.766,1.771,3.718,3.718,0,0,1,.886,2.53" transform="translate(496.243 -14.635)" fill="#fff"/>
      <path id="Path_46182" data-name="Path 46182" d="M-232.692,41.92h-2.572v5.1q0,1.948,1.364,1.946a4.17,4.17,0,0,0,1.035-.107l.064,1.771a5.182,5.182,0,0,1-1.813.26,2.808,2.808,0,0,1-2.164-.842,4.146,4.146,0,0,1-.777-2.832V41.92h-1.534V40.167h1.534V38.245l2.291-.692v2.614h2.572" transform="translate(491.359 -15.42)" fill="#fff"/>
      <path id="Path_46183" data-name="Path 46183" d="M-219.865,46.541a4.732,4.732,0,0,0-.629-2.492,2.3,2.3,0,0,0-2.094-1.258,2.339,2.339,0,0,0-2.14,1.258,4.826,4.826,0,0,0-.624,2.538,4.716,4.716,0,0,0,.624,2.49,2.356,2.356,0,0,0,2.121,1.258,2.33,2.33,0,0,0,2.094-1.28,4.716,4.716,0,0,0,.648-2.514m2.42-.074a5.754,5.754,0,0,1-1.383,3.976,4.935,4.935,0,0,1-3.846,1.6,4.7,4.7,0,0,1-3.687-1.534,5.588,5.588,0,0,1-1.37-3.867,5.7,5.7,0,0,1,1.415-4,4.889,4.889,0,0,1,3.812-1.558,4.8,4.8,0,0,1,3.718,1.534,5.539,5.539,0,0,1,1.341,3.849" transform="translate(487.718 -16.552)" fill="#fff"/>
      <path id="Path_46184" data-name="Path 46184" d="M-204.079,43.354a4.024,4.024,0,0,0-.735-.064,2.212,2.212,0,0,0-1.9.929,3.51,3.51,0,0,0-.581,2.073V51.8h-2.333l.019-7.2q0-1.819-.085-3.31h2.033l.085,2.012h.061a3.609,3.609,0,0,1,1.167-1.664,2.835,2.835,0,0,1,1.689-.563,3.87,3.87,0,0,1,.584.042" transform="translate(481.939 -16.552)" fill="#fff"/>
      <path id="Path_46185" data-name="Path 46185" d="M-192.7,45.441a3.169,3.169,0,0,0-.451-1.795,2.045,2.045,0,0,0-1.861-.974,2.221,2.221,0,0,0-1.858.953,3.444,3.444,0,0,0-.687,1.816Zm2.225.6a5.7,5.7,0,0,1-.083,1.059h-7a3.033,3.033,0,0,0,1.014,2.378,3.457,3.457,0,0,0,2.291.733,7.754,7.754,0,0,0,2.832-.5l.366,1.621a8.83,8.83,0,0,1-3.525.65,5.087,5.087,0,0,1-3.835-1.441,5.31,5.31,0,0,1-1.394-3.856,6,6,0,0,1,1.3-3.955,4.465,4.465,0,0,1,3.671-1.685,3.913,3.913,0,0,1,3.44,1.685,5.669,5.669,0,0,1,.924,3.307" transform="translate(478.77 -16.542)" fill="#fff"/>
    </g>
  </g>
</svg>
