<svg xmlns="http://www.w3.org/2000/svg" width="18.888" height="16.503" viewBox="0 0 18.888 16.503">
  <path id="Path_46265" data-name="Path 46265" d="M16.873-11.009a5.74,5.74,0,0,1,1.8,2.726,5.392,5.392,0,0,1,0,2.929,5.726,5.726,0,0,1-1.4,2.523L10.832,3.726a1.957,1.957,0,0,1-2.8,0L1.586-2.831a5.726,5.726,0,0,1-1.4-2.523A5.164,5.164,0,0,1,.223-8.283a5.5,5.5,0,0,1,1.768-2.726,4.785,4.785,0,0,1,2.394-1.105,5.653,5.653,0,0,1,2.707.221,5.843,5.843,0,0,1,2.339,1.437,5.843,5.843,0,0,1,2.339-1.437,5.653,5.653,0,0,1,2.707-.221A4.785,4.785,0,0,1,16.873-11.009Zm-.847,6.925A3.956,3.956,0,0,0,16.965-5.8,3.6,3.6,0,0,0,16.947-7.8a3.639,3.639,0,0,0-1.216-1.842,3.4,3.4,0,0,0-2.523-.774,3.747,3.747,0,0,0-2.486,1.179L9.432-7.951,8.143-9.241a3.747,3.747,0,0,0-2.486-1.179,3.4,3.4,0,0,0-2.523.774A3.639,3.639,0,0,0,1.917-7.8,3.6,3.6,0,0,0,1.9-5.8a3.956,3.956,0,0,0,.939,1.713L9.322,2.473q.111.147.221,0Z" transform="translate(0.008 12.188)" fill="#d74837"/>
</svg>
