<svg xmlns="http://www.w3.org/2000/svg" xmlns:xlink="http://www.w3.org/1999/xlink" width="73" height="73" viewBox="0 0 73 73">
  <defs>
    <filter id="Rectangle_7932" x="0" y="0" width="73" height="73" filterUnits="userSpaceOnUse">
      <feOffset dy="3" input="SourceAlpha"/>
      <feGaussianBlur stdDeviation="3" result="blur"/>
      <feFlood flood-opacity="0.161"/>
      <feComposite operator="in" in2="blur"/>
      <feComposite in="SourceGraphic"/>
    </filter>
  </defs>
  <g id="Group_12883" data-name="Group 12883" transform="translate(-1088 -616)">
    <g transform="matrix(1, 0, 0, 1, 1088, 616)" filter="url(#Rectangle_7932)">
      <rect id="Rectangle_7932-2" data-name="Rectangle 7932" width="55" height="55" rx="8" transform="translate(9 6)" fill="#f1f1f1"/>
    </g>
    <path id="Path_46265" data-name="Path 46265" d="M32.818-9.9a11.163,11.163,0,0,1,3.51,5.3,10.485,10.485,0,0,1,0,5.695,11.134,11.134,0,0,1-2.722,4.907L21.07,18.757a3.805,3.805,0,0,1-5.444,0L3.091,6.007A11.134,11.134,0,0,1,.369,1.1,10.042,10.042,0,0,1,.441-4.595,10.685,10.685,0,0,1,3.879-9.9a9.305,9.305,0,0,1,4.656-2.149,10.993,10.993,0,0,1,5.265.43,11.362,11.362,0,0,1,4.549,2.794A11.362,11.362,0,0,1,22.9-11.614a10.993,10.993,0,0,1,5.265-.43A9.305,9.305,0,0,1,32.818-9.9ZM31.17,3.571A7.693,7.693,0,0,0,33,.24a7,7,0,0,0-.036-3.9A7.076,7.076,0,0,0,30.6-7.245a6.621,6.621,0,0,0-4.907-1.5,7.287,7.287,0,0,0-4.835,2.292L18.348-3.95,15.841-6.457a7.287,7.287,0,0,0-4.835-2.292A6.621,6.621,0,0,0,6.1-7.245,7.076,7.076,0,0,0,3.736-3.663,7,7,0,0,0,3.7.24,7.693,7.693,0,0,0,5.527,3.571l12.607,12.75q.215.287.43,0Z" transform="translate(1106.008 650.237)" fill="#d74837"/>
  </g>
</svg>
