<svg xmlns="http://www.w3.org/2000/svg" width="26.137" height="26.138" viewBox="0 0 26.137 26.138">
  <g id="Group_12905" data-name="Group 12905" transform="translate(-1042.043 -6085.123)">
    <path id="Path_9300" data-name="Path 9300" d="M1066.859,9945.055c3.49,0,3.9.013,5.281.076a7.208,7.208,0,0,1,2.427.45,4.318,4.318,0,0,1,2.479,2.479,7.208,7.208,0,0,1,.45,2.427c.063,1.379.076,1.792.076,5.281s-.013,3.9-.076,5.281a7.214,7.214,0,0,1-.45,2.427,4.324,4.324,0,0,1-2.479,2.48,7.24,7.24,0,0,1-2.427.449c-1.379.063-1.791.076-5.281.076s-3.9-.014-5.281-.076a7.226,7.226,0,0,1-2.426-.449,4.322,4.322,0,0,1-2.481-2.48,7.246,7.246,0,0,1-.45-2.427c-.062-1.379-.076-1.791-.076-5.281s.014-3.9.076-5.281a7.24,7.24,0,0,1,.45-2.427,4.317,4.317,0,0,1,2.481-2.479,7.194,7.194,0,0,1,2.426-.45c1.379-.063,1.792-.076,5.281-.076m0-2.355c-3.55,0-3.994.016-5.388.079a9.638,9.638,0,0,0-3.172.606,6.683,6.683,0,0,0-3.822,3.823,9.588,9.588,0,0,0-.608,3.173c-.063,1.394-.078,1.838-.078,5.388s.015,3.994.078,5.388a9.581,9.581,0,0,0,.608,3.172,6.683,6.683,0,0,0,3.822,3.823,9.585,9.585,0,0,0,3.172.607c1.394.063,1.839.078,5.388.078s3.995-.015,5.388-.078a9.592,9.592,0,0,0,3.173-.607,6.684,6.684,0,0,0,3.822-3.823,9.609,9.609,0,0,0,.607-3.172c.064-1.394.078-1.838.078-5.388s-.015-3.994-.078-5.388a9.616,9.616,0,0,0-.607-3.173,6.684,6.684,0,0,0-3.822-3.823,9.645,9.645,0,0,0-3.173-.606c-1.394-.063-1.839-.079-5.388-.079" transform="translate(-11.747 -3857.576)" fill="#fff"/>
    <path id="Path_9301" data-name="Path 9301" d="M1066.911,9949.11a6.711,6.711,0,1,0,6.711,6.711,6.711,6.711,0,0,0-6.711-6.711m0,11.066a4.356,4.356,0,1,1,4.356-4.355,4.355,4.355,0,0,1-4.356,4.355" transform="translate(-11.8 -3857.629)" fill="#fff"/>
    <path id="Path_9302" data-name="Path 9302" d="M1075.557,9948.829a1.568,1.568,0,1,1-1.569-1.568,1.568,1.568,0,0,1,1.569,1.568" transform="translate(-11.9 -3857.613)" fill="#fff"/>
  </g>
</svg>
