<svg xmlns="http://www.w3.org/2000/svg" xmlns:xlink="http://www.w3.org/1999/xlink" width="83.721" height="82.721" viewBox="0 0 83.721 82.721">
  <defs>
    <filter id="Icon_ionic-ios-arrow-dropright-circle" x="0" y="0" width="83.721" height="82.721" filterUnits="userSpaceOnUse">
      <feOffset dy="3" input="SourceAlpha"/>
      <feGaussianBlur stdDeviation="3" result="blur"/>
      <feFlood flood-opacity="0.161"/>
      <feComposite operator="in" in2="blur"/>
      <feComposite in="SourceGraphic"/>
    </filter>
  </defs>
  <g transform="matrix(1, 0, 0, 1, 0, 0)" filter="url(#Icon_ionic-ios-arrow-dropright-circle)">
    <path id="Icon_ionic-ios-arrow-dropright-circle-2" data-name="Icon ionic-ios-arrow-dropright-circle" d="M69.1,35.735c0,17.876-14.708,32.36-32.86,32.36S3.375,53.611,3.375,35.735s14.708-32.36,32.86-32.36S69.1,17.859,69.1,35.735Zm-38.627,0L43.408,23.118a2.982,2.982,0,0,0,0-4.247,3.094,3.094,0,0,0-4.313,0L24.023,33.759a2.967,2.967,0,0,0-.095,4.138l14.85,14.671a3.085,3.085,0,0,0,4.313.016,2.968,2.968,0,0,0,0-4.247Z" transform="translate(5.62 2.63)" fill="#f6bf2e"/>
  </g>
</svg>
