<svg id="Policy" xmlns="http://www.w3.org/2000/svg" width="29.509" height="37.505" viewBox="0 0 29.509 37.505">
  <path id="Path_46299" data-name="Path 46299" d="M40.662,13.375a.736.736,0,0,0-.732-.73A19.493,19.493,0,0,1,26.464,7.774a.671.671,0,0,0-.924,0,19.493,19.493,0,0,1-13.466,4.871.736.736,0,0,0-.732.73c-.277,7.736-.121,17.547,2.993,22.156C17.591,40.371,24.409,44.481,26,45.1c1.593-.622,8.411-4.732,11.667-9.565C40.783,30.921,40.94,21.111,40.662,13.375Zm-8.389,9.119-7.238,8.589a1.06,1.06,0,0,1-.775.376h-.014a1.018,1.018,0,0,1-.761-.353l-3.733-4.118a1.221,1.221,0,0,1,.018-1.633,1.013,1.013,0,0,1,1.511.019l2.936,3.25,6.477-7.682a1.012,1.012,0,0,1,1.507-.077,1.219,1.219,0,0,1,.071,1.629Z" transform="translate(-11.248 -7.59)" fill="#d9d9d9"/>
</svg>
