<svg id="Group_12881" data-name="Group 12881" xmlns="http://www.w3.org/2000/svg" width="50.834" height="43.939" viewBox="0 0 50.834 43.939">
  <g id="Group_12880" data-name="Group 12880" transform="translate(0 2.775)">
    <path id="Path_46300" data-name="Path 46300" d="M18.1,44.237l-1.152-7.929,0-.187.869-.976.039-.232a.97.97,0,0,0-.959-1.13h-1.7a.971.971,0,0,0-.957,1.132l.039.23.974,1-1.274,8.008-2.311-10.7-.11-.415-.3.18A11.8,11.8,0,0,1,7.59,34.639c-2.527.517-4.871,1.13-5.7,3.948-.568,1.925-.617,9.664-.74,12.785a1.37,1.37,0,0,0,1.115,1.4,73.838,73.838,0,0,0,10.4,1.29h0l.169.007q.393.019.788.033l.289.01c.216.007.432.012.649.016h0l-.137,0h0l.136,0h0l.092,0,.125,0,.1,0h.138c.287,0,.573.007.858.007.219,0,.439,0,.659,0q-.33,0-.659,0A81.408,81.408,0,0,0,29.826,52.76a1.368,1.368,0,0,0,1.129-1.4c-.123-3.126-.172-10.849-.74-12.771C29.38,35.756,27,35.151,24.47,34.632a11.815,11.815,0,0,1-3.738-1.463L20.453,33Zm-.429,9.879-.139,0h0l.14,0Zm-2.8.018Z" transform="translate(-1.146 -12.981)" fill="#d9d9d9"/>
    <path id="Path_46301" data-name="Path 46301" d="M24.123,15.615c-.007-.083-.015-.165-.023-.247-.041-.4-.11-.8-.168-1.223.064.166.124.313.178.463s.1.3.147.447a.251.251,0,0,0-.006-.079,5.979,5.979,0,0,0-.427-1.385c-.044-.091-.083-.185-.118-.28-.12-.328-.239-.656-.358-.984-.01-.026-.018-.051-.028-.076l.031-.017.523.826a2.857,2.857,0,0,0-.1-.274,2.827,2.827,0,0,0-.671-1.025,1.186,1.186,0,0,1-.172-.2,2.951,2.951,0,0,0-1.24-1.114c-.236-.1-.473-.2-.708-.3l-.178-.077a6.472,6.472,0,0,1,2.268.654A.41.41,0,0,0,23,10.66a5.357,5.357,0,0,0-2.429-.849,3.659,3.659,0,0,1-.969-.162,2.853,2.853,0,0,0-.343-.1c-.163-.043-.328-.083-.493-.123,0-.01,0-.02,0-.03h1.51c-.011-.028-.025-.038-.039-.04a8.475,8.475,0,0,0-1.98-.1,3.017,3.017,0,0,1-.679,0c-.1-.013-.2-.017-.3-.026,0-.01,0-.02,0-.03l1.507-.28a9.867,9.867,0,0,0-1.5.133c-.272.049-.537.135-.811.171-.391.051-.786.072-1.181.1A7.6,7.6,0,0,1,17.755,8.7c-.16,0-.32,0-.479.006a8.18,8.18,0,0,0-1.746.256,3.466,3.466,0,0,0-1.31.625,2.412,2.412,0,0,1-.244.15c-.008-.013-.016-.026-.025-.038.178-.129.35-.268.535-.384A5.737,5.737,0,0,1,15.077,9c.2-.091.4-.165.6-.246a5.915,5.915,0,0,0-1.146.42,11.65,11.65,0,0,0-1.907,1.443s0,0-.006.007c-.04.066-.084.129-.12.2-.054.1-.094.211-.153.307a.3.3,0,0,1-.138.095c-.1.043-.214.067-.316.114a1.713,1.713,0,0,0-1,1.241,2.249,2.249,0,0,1,.535-.706c-.064.224-.119.423-.181.62a.978.978,0,0,1-.107.228,2.519,2.519,0,0,0-.3.652c.1-.175.193-.326.282-.478l.022.011c-.01.041-.018.083-.028.123a11.181,11.181,0,0,0-.311,2.606,1.587,1.587,0,0,0-1.279,1.556v2.435a1.587,1.587,0,0,0,1.587,1.586h.5A14.531,14.531,0,0,0,13.329,24.6a5.186,5.186,0,0,0,4.046,2.54h.082a5.273,5.273,0,0,0,4.1-2.395,11.808,11.808,0,0,0,1.071-1.708,11.941,11.941,0,0,0,.5-1.11c.4-.291.711-.549.908-.722a1.585,1.585,0,0,0,1.5-1.581V17.189A1.586,1.586,0,0,0,24.123,15.615ZM20.645,24.06A4.153,4.153,0,0,1,17.4,26a4.046,4.046,0,0,1-3.13-2.046,13.6,13.6,0,0,1-.852-1.415,12.569,12.569,0,0,1-.6-1.327,7.473,7.473,0,0,1-.493-2.877c0-.044,0-.089,0-.133a.507.507,0,0,1,.01-.138c.039-.135.091-.266.127-.4.02-.076.039-.151.058-.228.092-.361.18-.722.279-1.082a1.418,1.418,0,0,1,.152-.341c.122-.207.262-.207.4-.007l.061.089a.118.118,0,0,0,.012.018,1.043,1.043,0,0,1,.3-.757A1.147,1.147,0,0,1,14.443,15,7.308,7.308,0,0,0,20.9,14.95a1.833,1.833,0,0,1,.5.067.919.919,0,0,1,.6.5,4.116,4.116,0,0,1,.165.516,1.766,1.766,0,0,1,.128-.15c.117-.117.212-.1.282.054a.758.758,0,0,1,.063.2c.048.32.088.638.137.958a.086.086,0,0,0,0,.02c.016.107.034.214.054.322.025.142.05.282.074.422,0,.059-.008.119-.015.179a13.284,13.284,0,0,1-.7,3.177c-.078.217-.163.431-.253.64A8.535,8.535,0,0,1,19,23.058a.913.913,0,0,0-.8-.471h-.61a.914.914,0,1,0,0,1.829h.61a.914.914,0,0,0,.867-.627,8.163,8.163,0,0,0,2.265-.763A11.074,11.074,0,0,1,20.645,24.06Z" transform="translate(-2.622 -8.699)" fill="#d9d9d9"/>
  </g>
  <path id="Path_46302" data-name="Path 46302" d="M57.127,37.351c-.081-1.115-.341-7.312-.783-8.338a6.652,6.652,0,0,0-2.648-3.34,16.7,16.7,0,0,0-1.827-.921c-.949-.405-1.906-.79-2.861-1.18a9.309,9.309,0,0,0,2.912-.589c-.068-.027-.117-.05-.168-.068a3.866,3.866,0,0,1-2.12-1.69,4.546,4.546,0,0,1-.479-1.2h.437a.659.659,0,0,0,.727-.5A10.547,10.547,0,0,0,51,14.071a11.722,11.722,0,0,0-2.349-6c-.039-.058-.079-.115-.12-.173a5.73,5.73,0,0,0-1.073-1.115,4.336,4.336,0,0,0-2.363-1.3c-.484-.067-.974-.11-1.466-.133l-.124-.021H42.254l-.04.01c-.268.008-.534.021-.8.04a5.21,5.21,0,0,0-3.053,1.375,5.079,5.079,0,0,0-1.157,1.193,11.654,11.654,0,0,0-2.456,6.165,10.147,10.147,0,0,0,.747,5.5c.076.167.289.39.435.388h.723a4.119,4.119,0,0,1-2.634,2.931c-.04.016-.079.038-.183.087a10.642,10.642,0,0,0,2.951.563c-1.3.543-2.614,1.077-3.91,1.643a6,6,0,0,0-2.451,1.951c2.434.5,6.244,1.427,7.529,5.776a34.9,34.9,0,0,1,.651,6.789c1.267.075,2.368.127,3.086.171a74.725,74.725,0,0,0,10.446-.616,21.274,21.274,0,0,0,4.434-1.061C57.125,38.025,57.17,37.945,57.127,37.351ZM37.761,12.21a10.207,10.207,0,0,1,.288-1.522.736.736,0,0,1,.73-.554h.007A13.217,13.217,0,0,0,42.3,9.844a8.592,8.592,0,0,0,1.11-.33c.243.183.5.358.754.53a16.494,16.494,0,0,1,1.951,1.421,23.164,23.164,0,0,1,1.643,1.794c.2-1.164-.785-1.789-1.3-2.639a5.249,5.249,0,0,1,1.723,1.652l.154.274a4,4,0,0,1,.416,1.6c.008.143.011.286.009.427a10.53,10.53,0,0,1-.186,1.251,9.888,9.888,0,0,1-.7,2.256,9.43,9.43,0,0,1-3.253,1.344,1.007,1.007,0,0,0-.881-.519h-.672a1.008,1.008,0,1,0,0,2.017h.672a1.009,1.009,0,0,0,.956-.691,8.932,8.932,0,0,0,2.451-.817,9.427,9.427,0,0,1-2.421,2.53c-.066.047-.133.094-.2.139a2.862,2.862,0,0,1-3.318-.026C36.337,19.485,37.761,12.21,37.761,12.21ZM48.136,27.117l-5.249,4.609-5.261-4.609H35.457a11.575,11.575,0,0,1,2.522-3.648,4.725,4.725,0,0,0,2.106-1.058c.532.3,1.028.6,1.542.867a2.615,2.615,0,0,0,2.494.015c.465-.234.916-.5,1.38-.751a4.684,4.684,0,0,0,2.513.993A17.744,17.744,0,0,1,50.3,27.11Z" transform="translate(-6.306 -5.331)" fill="#d9d9d9"/>
  <path id="Path_46303" data-name="Path 46303" d="M44.532,31.8a5.364,5.364,0,0,1-3.6-1.39c-.48-.455-.548-.9-.175-1.23.447-.392.81-.175,1.184.174a4.027,4.027,0,0,0,5.316-.016c.381-.354.749-.543,1.182-.141.362.335.283.77-.2,1.228A5.452,5.452,0,0,1,44.532,31.8Z" transform="translate(-8.084 -9.497)" fill="#d9d9d9"/>
</svg>
