<svg xmlns="http://www.w3.org/2000/svg" width="31.418" height="37.527" viewBox="0 0 31.418 37.527">
  <g id="noun_Privacy_2545932" transform="translate(-5 -2.001)">
    <circle id="Ellipse_347" data-name="Ellipse 347" cx="2.681" cy="2.681" r="2.681" transform="translate(18.028 12.053)" fill="#fff"/>
    <path id="Path_46297" data-name="Path 46297" d="M35.461,6.767,21.18,2.076a1.508,1.508,0,0,0-.943,0L5.957,6.767A1.348,1.348,0,0,0,5,8.032V23.017A12.483,12.483,0,0,0,8.45,31.2a26.563,26.563,0,0,0,3.237,3.069,72.6,72.6,0,0,0,8.119,4.978l.158.088a1.5,1.5,0,0,0,.743.194,1.517,1.517,0,0,0,.746-.194l.158-.088a72.706,72.706,0,0,0,8.119-4.978,26.54,26.54,0,0,0,3.238-3.073,12.463,12.463,0,0,0,3.449-8.164v-15A1.349,1.349,0,0,0,35.461,6.767ZM20.709,10.713a4.163,4.163,0,0,1,4.284,4.021,4.163,4.163,0,0,1-4.284,4.021,4.163,4.163,0,0,1-4.284-4.021A4.163,4.163,0,0,1,20.709,10.713Zm7.14,17.424H13.569a.693.693,0,0,1-.714-.67A7.634,7.634,0,0,1,20.709,20.1a7.634,7.634,0,0,1,7.854,7.372A.693.693,0,0,1,27.849,28.137Z" fill="#d9d9d9"/>
    <path id="Path_46298" data-name="Path 46298" d="M17.522,16.5a6.041,6.041,0,0,0-5.995,5.361h11.99A6.041,6.041,0,0,0,17.522,16.5Z" transform="translate(3.187 4.935)" fill="#fff"/>
  </g>
</svg>
