<svg xmlns="http://www.w3.org/2000/svg" width="39.435" height="30.342" viewBox="0 0 39.435 30.342">
  <g id="Group_12905" data-name="Group 12905" transform="translate(0 0)">
    <path id="Path_19366" data-name="Path 19366" d="M1874.447,885.358h16.581a3.047,3.047,0,0,1,1.31.172,2.261,2.261,0,0,1,.03,4,3.166,3.166,0,0,1-1.411.184H1857.8a6,6,0,0,1-.819-.022,2.2,2.2,0,0,1-.031-4.31,6.348,6.348,0,0,1,.92-.025Z" transform="translate(-1854.651 -872.368)" fill="#fff"/>
    <path id="Path_19367" data-name="Path 19367" d="M1874.953,829.5q8.728,0,17.456,0a2.042,2.042,0,0,1,2.2,2.385,1.87,1.87,0,0,1-1.383,1.8,5.155,5.155,0,0,1-1.353.14q-16.93.011-33.86,0a6.4,6.4,0,0,1-1.047-.06,2.014,2.014,0,0,1-1.74-2.3,1.977,1.977,0,0,1,1.955-1.964c1.471-.031,2.944-.011,4.417-.011Z" transform="translate(-1855.205 -829.498)" fill="#fff"/>
    <path id="Path_19368" data-name="Path 19368" d="M1874.75,945.652c-5.784,0-11.568-.011-17.352.01a2.043,2.043,0,0,1-2.174-1.417,2.1,2.1,0,0,1,1.422-2.815,5.165,5.165,0,0,1,1.147-.107q17.036-.008,34.073,0c1.682,0,2.535.634,2.643,1.935a2.042,2.042,0,0,1-2.092,2.391c-2.664.019-5.328.005-7.992.006Z" transform="translate(-1855.084 -915.32)" fill="#fff"/>
  </g>
</svg>
