<svg xmlns="http://www.w3.org/2000/svg" width="46.112" height="29.456" viewBox="0 0 46.112 29.456">
  <g id="noun_product_3470309" transform="translate(-487.766 -344)">
    <g id="Group_12879" data-name="Group 12879" transform="translate(487.766 344)">
      <path id="Path_46289" data-name="Path 46289" d="M10,17V46.456H26.441V17H21.874v8.285a.922.922,0,0,1-.483.812.907.907,0,0,1-.938-.046l-2.233-1.5-2.233,1.5a.907.907,0,0,1-.937.046.922.922,0,0,1-.483-.81V17Z" transform="translate(-5.219 -17)" fill="#d9d9d9"/>
      <path id="Path_46290" data-name="Path 46290" d="M36,38.48H46.961V33H36Zm5.48-3.654h3.654v1.827H41.48Zm-3.654,0h1.827v1.827H37.827Z" transform="translate(-10.146 -18.246)" fill="#d9d9d9"/>
      <path id="Path_46291" data-name="Path 46291" d="M18.32,22.634a.913.913,0,0,1,1.014,0l1.32.88V17H17v6.514Z" transform="translate(-6.707 -17)" fill="#d9d9d9"/>
      <path id="Path_46292" data-name="Path 46292" d="M51.921,26.417H34.567a.912.912,0,0,1-.783-.447L30,19.611V46.682H51.921ZM33.654,38.392V31.023a.917.917,0,0,1,.913-.921H47.354a.917.917,0,0,1,.913.921v7.369a.917.917,0,0,1-.913.921H34.567A.917.917,0,0,1,33.654,38.392ZM44.614,44.84H42.787V43h1.827Zm5.48,0H46.441V43h3.654Z" transform="translate(-10.588 -17.226)" fill="#d9d9d9"/>
      <path id="Path_46293" data-name="Path 46293" d="M7.72,19.611,4.766,24.533H7.72Z" transform="translate(-4.766 -17.226)" fill="#d9d9d9"/>
      <path id="Path_46294" data-name="Path 46294" d="M52.384,17H30.766l4.384,7.307H56.767Z" transform="translate(-10.655 -17)" fill="#d9d9d9"/>
    </g>
  </g>
</svg>
