<svg xmlns="http://www.w3.org/2000/svg" width="42.321" height="33.853" viewBox="0 0 42.321 33.853">
  <g id="noun_users_78729" transform="translate(584.82 -372.231)">
    <path id="Path_46295" data-name="Path 46295" d="M-561.921,394.316c-1.919-1.137-4.524-2.268-6.43-4.359v-.975a10.456,10.456,0,0,0,2.007-3.611c.065-.2.125-.4.181-.606a2.1,2.1,0,0,0,.927-1.65,2.822,2.822,0,0,0-.013-.74,1.887,1.887,0,0,0-.4-.945q.06-1.1.007-2.334c-.026-.638-.075-1.3-.148-1.993-.018-.171-.041-.336-.068-.5-.691-3.98-4.312-4.373-5.688-4.377h-1.062c-1.376,0-5,.4-5.688,4.377q-.041.239-.069.5c-.073.692-.121,1.355-.148,1.993q-.052,1.23.007,2.334a1.87,1.87,0,0,0-.4.945,2.815,2.815,0,0,0-.014.74,2.1,2.1,0,0,0,.927,1.65,11.979,11.979,0,0,0,.389,1.189,10.3,10.3,0,0,0,1.8,3.028v.974h0c-3.4,3.724-9.01,4.4-9.01,7.5v3.373a.75.75,0,0,0,.75.751h13C-570.542,398.587-565.8,397.395-561.921,394.316Z" transform="translate(0 0)" fill="#d9d9d9"/>
    <path id="Path_46296" data-name="Path 46296" d="M-532.422,396.379l-.006-1.455c2.058.269,6.251-1.229,6.251-1.229-1.422-1.454-1.743-3.151-2.677-9.81s-6.72-6.6-7.156-6.6-6.223-.062-7.156,6.6-1.255,8.356-2.677,9.81c0,0,4.194,1.5,6.251,1.229l-.006,1.455c-3.66,4.014-9.73,4.746-9.729,8.081V408.1a.809.809,0,0,0,.808.809H-523.5a.809.809,0,0,0,.808-.809V404.46C-522.692,401.125-528.762,400.393-532.422,396.379Z" transform="translate(-19.806 -2.822)" fill="#d9d9d9"/>
  </g>
</svg>
