<svg id="baseline-call-24px" xmlns="http://www.w3.org/2000/svg" width="40" height="40" viewBox="0 0 40 40">
  <path id="Path_661" data-name="Path 661" d="M0,0H40V40H0Z" fill="none"/>
  <path id="Path_662" data-name="Path 662" d="M31.35,23.633a19.072,19.072,0,0,1-5.883-.933,1.629,1.629,0,0,0-1.683.4l-2.617,3.283A25.306,25.306,0,0,1,9.683,15l3.25-2.767a1.7,1.7,0,0,0,.4-1.7A18.588,18.588,0,0,1,12.4,4.65,1.665,1.665,0,0,0,10.75,3H4.983C4.083,3,3,3.4,3,4.65A28.587,28.587,0,0,0,31.35,33,1.749,1.749,0,0,0,33,31.033v-5.75a1.665,1.665,0,0,0-1.65-1.65Z" transform="translate(2 2)" fill="#cfc8c8"/>
</svg>
