<svg id="Group_12921" data-name="Group 12921" xmlns="http://www.w3.org/2000/svg" width="43.436" height="43.436" viewBox="0 0 43.436 43.436">
  <path id="Path_592" data-name="Path 592" d="M43.436,0H0V43.436H43.436Z" fill="rgba(0,0,0,0)"/>
  <path id="Path_593" data-name="Path 593" d="M3.81,9.239H7.43V25.528H30.957v3.62a1.815,1.815,0,0,1-1.81,1.81H9.239L2,38.2V11.049A1.815,1.815,0,0,1,3.81,9.239ZM11.049,20.1V3.81A1.815,1.815,0,0,1,12.859,2H36.387A1.815,1.815,0,0,1,38.2,3.81V29.148l-7.239-7.239h-18.1A1.815,1.815,0,0,1,11.049,20.1Z" transform="translate(1.62 1.62)" fill="#d9d9d9"/>
</svg>
