<svg xmlns="http://www.w3.org/2000/svg" width="26.091" height="25.808" viewBox="0 0 26.091 25.808">
  <path id="Path_43328" data-name="Path 43328" d="M513.737,225.118a29.286,29.286,0,0,1-2.711-1.795,11.866,11.866,0,0,1-1.871-2.027c-1.66-2.264-1.848-4.021,1.278-5.033.265-.086.527-.245.338-.615-3.064.067-3.132-.007-3.107-3.211.016-1.991.111-3.977-1.363-5.642a8.209,8.209,0,0,0-8.628-2.008c-2.754.95-4.346,3.349-4.381,6.626-.009.781-.021,1.567.048,2.344.137,1.538-.587,2.063-2.036,1.908-.321-.034-.824-.46-1.018.23,3.462,2.031,3.626,3.119,1.053,6.159a29.553,29.553,0,0,1-3.692,3.1c2.047-.077,2.628,2.4,4.523,2.3a7.7,7.7,0,0,1,4.963,1.573,5.769,5.769,0,0,0,6.617.145c.981-.568,1.922-1.61,3.017-1.47C509.51,228.045,511.1,225.849,513.737,225.118Z" transform="translate(-487.646 -204.329)" fill="#fff"/>
</svg>
