<svg xmlns="http://www.w3.org/2000/svg" width="15.836" height="15.839" viewBox="0 0 15.836 15.839">
  <path id="Path_19900" data-name="Path 19900" d="M931.337,2375.652a6.4,6.4,0,0,1-8.883-.844,6.317,6.317,0,1,1,9.794-.071l3.31,3.36q.476.482.953.963c.313.314.457.684.1,1.021a.685.685,0,0,1-1.036-.093q-1.78-1.791-3.557-3.585C931.793,2376.169,931.58,2375.919,931.337,2375.652Zm-4.063-9.867a4.98,4.98,0,0,0-.017,9.961,5.025,5.025,0,0,0,5-4.951A4.962,4.962,0,0,0,927.273,2365.784Z" transform="translate(-920.985 -2364.438)" fill="#fff"/>
</svg>
