<svg xmlns="http://www.w3.org/2000/svg" width="36.312" height="35.011" viewBox="0 0 36.312 35.011">
  <g id="Group_12761" data-name="Group 12761" transform="translate(-6.112 -250.188)">
    <g id="noun_sign_out_3823495" data-name="noun_sign out_3823495" transform="translate(6.112 250.188)">
      <g id="Layer_5" data-name="Layer 5" transform="translate(0)">
        <path id="Path_46267" data-name="Path 46267" d="M3.291,13.593h3.89V12.3A1.3,1.3,0,0,1,9.4,11.375l5.186,5.186a1.3,1.3,0,0,1,0,1.841L9.4,23.589a1.3,1.3,0,0,1-.921.376,1.089,1.089,0,0,1-.493-.1,1.3,1.3,0,0,1-.8-1.193v-1.3H3.291a1.3,1.3,0,0,1-1.3-1.3V14.889A1.3,1.3,0,0,1,3.291,13.593Z" transform="translate(21.345 0.05)" fill="#f6bf2e"/>
        <path id="Path_46268" data-name="Path 46268" d="M19.634,6.811,30.006,2.662a2.593,2.593,0,0,1,3.553,2.412V34.9a2.585,2.585,0,0,1-2.593,2.593,2.477,2.477,0,0,1-.959-.182L19.634,33.158A2.593,2.593,0,0,1,18,30.8V9.223A2.593,2.593,0,0,1,19.634,6.811ZM27.076,22.6a1.3,1.3,0,1,0,2.593,0V17.417a1.3,1.3,0,0,0-2.593,0Z" transform="translate(-18 -2.478)" fill="#f6bf2e"/>
        <path id="Path_46269" data-name="Path 46269" d="M14.3,34.822h5.186a2.593,2.593,0,0,0,2.593-2.593V7.593A2.593,2.593,0,0,0,19.483,5H14.3A1.3,1.3,0,0,0,13,6.3V33.525A1.3,1.3,0,0,0,14.3,34.822ZM19.483,7.593V32.229h-3.89V7.593Z" transform="translate(-0.034 -1.73)" fill="#f6bf2e"/>
      </g>
    </g>
  </g>
</svg>
