<svg xmlns="http://www.w3.org/2000/svg" width="27" height="11" viewBox="0 0 27 11">
  <g id="Group_12918" data-name="Group 12918" transform="translate(-1237 -239)">
    <g id="Path_42961" data-name="Path 42961" transform="translate(1237 239)" fill="rgba(198,213,74,0.38)">
      <path d="M 21.5 10.25 L 5.5 10.25 C 2.880840063095093 10.25 0.75 8.119159698486328 0.75 5.5 C 0.75 2.880840063095093 2.880840063095093 0.75 5.5 0.75 L 21.5 0.75 C 24.11915969848633 0.75 26.25 2.880840063095093 26.25 5.5 C 26.25 8.119159698486328 24.11915969848633 10.25 21.5 10.25 Z" stroke="none"/>
      <path d="M 5.5 1.5 C 3.294389724731445 1.5 1.5 3.294390201568604 1.5 5.5 C 1.5 7.705610275268555 3.294389724731445 9.5 5.5 9.5 L 21.5 9.5 C 23.70561027526855 9.5 25.5 7.705610275268555 25.5 5.5 C 25.5 3.294390201568604 23.70561027526855 1.5 21.5 1.5 L 5.5 1.5 M 5.5 0 L 21.5 0 C 24.53757095336914 0 27 2.462430000305176 27 5.5 C 27 8.537569999694824 24.53757095336914 11 21.5 11 L 5.5 11 C 2.462429046630859 11 0 8.537569999694824 0 5.5 C 0 2.462430000305176 2.462429046630859 0 5.5 0 Z" stroke="none" fill="#cccbcb"/>
    </g>
    <path id="Path_23925" data-name="Path 23925" d="M5.5,0A5.5,5.5,0,1,1,0,5.5,5.5,5.5,0,0,1,5.5,0Z" transform="translate(1237 239)" fill="#c6d54a"/>
  </g>
</svg>
