<svg id="Group_12920" data-name="Group 12920" xmlns="http://www.w3.org/2000/svg" width="38" height="38" viewBox="0 0 38 38">
  <path id="Path_42981" data-name="Path 42981" d="M19,0A19,19,0,1,0,38,19,19,19,0,0,0,19,0Z" fill="#d9d9d9"/>
  <path id="Path_19913" data-name="Path 19913" d="M78.6,87.958a10.813,10.813,0,0,1,4.126-2.588,6.278,6.278,0,1,1,7.1,0,10.88,10.88,0,0,1,7.27,9.355.849.849,0,0,1-1.692.135,9.163,9.163,0,0,0-18.259,0,.848.848,0,0,1-1.692-.135A10.781,10.781,0,0,1,78.6,87.958Zm7.679-3.181A4.581,4.581,0,1,0,81.694,80.2,4.586,4.586,0,0,0,86.276,84.778Z" transform="translate(-67.551 -66.088)" fill="#fff"/>
</svg>
