<svg id="Group_12905" data-name="Group 12905" xmlns="http://www.w3.org/2000/svg" width="38" height="38" viewBox="0 0 38 38">
  <path id="Path_42981" data-name="Path 42981" d="M19,0A19,19,0,1,1,0,19,19,19,0,0,1,19,0Z" fill="#f6bf2e"/>
  <path id="Path_19913" data-name="Path 19913" d="M93.954,87.958a10.813,10.813,0,0,0-4.126-2.588,6.278,6.278,0,1,0-7.1,0,10.88,10.88,0,0,0-7.27,9.355.849.849,0,0,0,1.692.135,9.163,9.163,0,0,1,18.259,0,.848.848,0,0,0,1.692-.135A10.781,10.781,0,0,0,93.954,87.958Zm-7.679-3.181A4.581,4.581,0,1,1,90.857,80.2,4.586,4.586,0,0,1,86.275,84.778Z" transform="translate(-67 -66.088)" fill="#fff"/>
</svg>
