<svg xmlns="http://www.w3.org/2000/svg" width="26.147" height="26.153" viewBox="0 0 26.147 26.153">
  <g id="Group_12906" data-name="Group 12906" transform="translate(-914.165 -6083.992)">
    <path id="Path_9304" data-name="Path 9304" d="M940.912,9953.974a12.839,12.839,0,0,0-25.654-.234c-.006.188-.012.373-.012.559a12.65,12.65,0,0,0,1.839,6.581l-2.314,6.833,7.11-2.26a12.853,12.853,0,0,0,19.037-11.154C940.918,9954.189,940.918,9954.081,940.912,9953.974Zm-12.83,11.033a10.755,10.755,0,0,1-5.938-1.771L918,9964.557l1.347-3.979a10.6,10.6,0,0,1-2.056-6.28,10.041,10.041,0,0,1,.055-1.039,10.8,10.8,0,0,1,21.5.2c.024.277.036.555.036.836A10.762,10.762,0,0,1,928.083,9965.007Z" transform="translate(-0.605 -3857.566)" fill="#fff" fill-rule="evenodd"/>
    <path id="Path_9305" data-name="Path 9305" d="M934.024,9956.929c-.318-.157-1.864-.914-2.151-1.017s-.5-.155-.709.156-.817,1.016-1,1.221-.367.234-.685.078a8.52,8.52,0,0,1-2.53-1.551,9.338,9.338,0,0,1-1.749-2.157c-.18-.313-.018-.481.138-.638s.313-.365.475-.547l.114-.148a3.713,3.713,0,0,0,.2-.373.567.567,0,0,0-.024-.549c-.078-.154-.709-1.693-.974-2.319s-.523-.516-.709-.516-.391-.03-.6-.03a1.166,1.166,0,0,0-.841.39,3.5,3.5,0,0,0-1.1,2.609,3.956,3.956,0,0,0,.163,1.063,7.1,7.1,0,0,0,1.124,2.165,12.92,12.92,0,0,0,5.372,4.717c3.2,1.243,3.2.829,3.78.775a3.142,3.142,0,0,0,2.121-1.484,2.58,2.58,0,0,0,.186-1.484C934.547,9957.163,934.337,9957.084,934.024,9956.929Z" transform="translate(-0.664 -3857.624)" fill="#fff" fill-rule="evenodd"/>
  </g>
</svg>
