<svg xmlns="http://www.w3.org/2000/svg" width="13.706" height="13.705" viewBox="0 0 13.706 13.705">
  <g id="Group_6890" data-name="Group 6890" transform="translate(-4643.78 15154.701)">
    <path id="Path_17110" data-name="Path 17110" d="M293.441,926.163l2.538-2.541q1.438-1.439,2.877-2.876a2.27,2.27,0,0,1,.341-.3.751.751,0,0,1,1.039,1.028,2.364,2.364,0,0,1-.325.37q-2.445,2.448-4.893,4.892c-.134.134-.286.25-.463.4.131.141.218.241.312.336q2.485,2.488,4.972,4.974c.072.072.145.142.214.216a.783.783,0,0,1,.075,1.147.773.773,0,0,1-1.145-.065c-.677-.668-1.345-1.344-2.017-2.015q-1.573-1.573-3.143-3.147a2.808,2.808,0,0,1-.26-.365c-.175.163-.276.252-.372.348q-2.515,2.513-5.028,5.026a2.682,2.682,0,0,1-.337.305.751.751,0,0,1-1.033-1.065,2.831,2.831,0,0,1,.284-.306L292.1,927.5c.1-.1.187-.2.3-.315-.11-.116-.2-.218-.3-.315q-2.513-2.514-5.026-5.028a2.477,2.477,0,0,1-.3-.339.75.75,0,0,1,1.029-1.047,2.5,2.5,0,0,1,.368.327q2.5,2.5,5,5A3.061,3.061,0,0,1,293.441,926.163Z" transform="translate(4357.138 -16075.03)" fill="#262626"/>
  </g>
</svg>
